<svg viewBox="0 0 802 802" xmlns="http://www.w3.org/2000/svg" style="fill-rule:evenodd;">
    <path d="M755.101,217.29C783.001,271.734 798.747,333.418 798.747,398.75C798.747,618.826 620.074,797.5 399.998,797.5C179.921,797.5 1.248,618.826 1.248,398.75C1.248,178.674 179.921,0 399.998,0C545.941,0 673.677,78.575 743.173,195.693C744.103,197.261 748.579,204.565 755.101,217.29ZM61.149,571.899C81.291,537.429 106.047,500.173 133.567,469.409C206.266,388.139 438.46,521.191 438.46,521.191C345.731,396.769 106.119,415.468 106.119,415.468C106.119,415.468 74.962,414.03 87.573,361.528C100.184,309.026 187.72,251.49 187.72,251.49C187.72,251.49 190.688,275.223 202.557,340.671C214.426,406.119 298.254,410.434 342.022,409.715C385.79,408.995 465.082,409.779 584.602,594.55C609.208,632.591 624.574,665.429 633.883,690.091C569.363,738.573 488.106,767.293 399.986,767.293C253.725,767.293 126.374,688.174 61.149,571.899ZM733.027,219.8C652.592,231.403 511.508,279.231 546.925,473.371C546.925,473.371 652.551,562.493 674.482,658.596C738.659,590.833 778.041,499.354 778.041,398.75C778.041,334.028 761.742,273.084 733.027,219.8ZM719.022,195.946C651.888,90.623 534.043,20.706 399.998,20.706C191.349,20.706 21.954,190.102 21.954,398.75C21.954,405.98 22.157,413.163 22.559,420.293C64.442,341.833 268.073,3.585 568.658,198.081C568.658,198.081 652.026,187.954 719.022,195.946ZM476.964,274.344C475.113,255.157 516.374,199.001 632.286,226.015C632.286,226.015 569.252,234.9 533.761,285.484C515.496,311.515 479.195,297.462 476.964,274.344ZM362.09,186.727C387.484,186.727 408.1,207.344 408.1,232.738C408.1,258.132 387.484,278.748 362.09,278.748C336.696,278.748 316.079,258.132 316.079,232.738C316.079,207.344 336.696,186.727 362.09,186.727Z" style="fill:rgb(255,255,255);"/>
</svg>
